<svg width="7" height="13" viewBox="0 0 7 13" fill="none" xmlns="http://www.w3.org/2000/svg">
<path d="M5.59795 10.1322C6.33895 9.01512 6.70945 7.80819 6.70945 6.51032C6.70945 5.21245 6.33895 4.00139 5.59795 2.87505C4.85695 1.74872 3.87739 0.955119 2.65611 0.494252C2.48195 0.409519 2.26345 0.366119 2.00272 0.366119C1.54989 0.366119 1.15722 0.52422 0.825779 0.839386C0.494334 1.15662 0.328613 1.54309 0.328613 2.00395C0.328613 2.36252 0.433114 2.66529 0.643169 2.91225C0.853225 3.15922 1.10445 3.37312 1.40106 3.55189C1.69661 3.73065 1.99322 3.92699 2.28984 4.14089C2.58645 4.35479 2.83872 4.65652 3.04772 5.04919C3.25672 5.44185 3.36122 5.92855 3.36122 6.50825C3.36122 7.08795 3.25672 7.57465 3.04772 7.96732C2.83872 8.35999 2.58645 8.66275 2.28984 8.87562C1.99322 9.08849 1.69661 9.28585 1.40106 9.46462C1.10445 9.64339 0.852169 9.85729 0.643169 10.1043C0.434169 10.3512 0.328613 10.655 0.328613 11.0126C0.328613 11.4734 0.49539 11.8609 0.825779 12.1771C1.15722 12.4913 1.54884 12.6514 2.00272 12.6514C2.26345 12.6514 2.48195 12.6091 2.65611 12.5233C3.87634 12.0449 4.85695 11.2471 5.59795 10.1291V10.1322Z" fill="#B3B3B3"/>
</svg>
