<svg width="11" height="25" viewBox="0 0 11 25" fill="none" xmlns="http://www.w3.org/2000/svg">
<path d="M8.75625 19.8582C10.252 17.6112 10.9999 15.1571 10.9999 12.499C10.9999 9.84189 10.252 7.38986 8.75625 5.13971C7.26049 2.89271 5.28106 1.25452 2.81902 0.230389C2.59103 0.144168 2.36198 0.100006 2.13293 0.100006C1.67589 0.100006 1.27958 0.265087 0.945055 0.595249C0.610533 0.925411 0.444336 1.31551 0.444336 1.76764C0.444336 2.44479 0.78738 2.95685 1.47347 3.30489C2.45786 3.80855 3.1269 4.19023 3.47847 4.45099C4.78034 5.38891 5.79669 6.56445 6.52646 7.97973C7.25623 9.39501 7.62165 10.9007 7.62165 12.5C7.62165 14.0972 7.25623 15.6039 6.52646 17.0203C5.79669 18.4356 4.78034 19.6111 3.47847 20.549C3.1269 20.8098 2.45786 21.1915 1.47347 21.6951C0.78738 22.0432 0.444336 22.5542 0.444336 23.2324C0.444336 23.6835 0.611598 24.0746 0.945055 24.4048C1.27851 24.7349 1.68335 24.9 2.1585 24.9C2.36944 24.9 2.58997 24.8558 2.81795 24.7696C5.27999 23.7444 7.26049 22.1084 8.75519 19.8593L8.75625 19.8582Z" fill="#B3B3B3"/>
</svg>
